<?xml version="1.0" encoding="UTF-8"?>
<svg xmlns="http://www.w3.org/2000/svg" xmlns:xlink="http://www.w3.org/1999/xlink" width="66pt" height="66pt" viewBox="0 0 66 66" version="1.1">
<g id="surface1">
<path style=" stroke:none;fill-rule:evenodd;fill:rgb(94.139099%,88.28125%,0%);fill-opacity:1;" d="M 0.0625 -0.0078125 L 66.0625 -0.0078125 L 66.0625 65.992188 L 0.0625 65.992188 Z M 33.0625 9.132813 C 40.902344 9.132813 46.101563 13.964844 46.6875 21.207031 C 46.890625 23.75 46.097656 28.355469 46.386719 28.855469 C 46.648438 29.3125 47.339844 29.402344 47.867188 29.402344 C 49.402344 29.402344 50.316406 28.558594 51.121094 28.480469 C 51.714844 28.425781 53.371094 29.542969 53.265625 30.152344 C 53.101563 31.101563 51.429688 31.761719 50.34375 32.289063 C 48.9375 32.972656 47.511719 33.210938 46.96875 34.425781 C 46.203125 36.128906 49.621094 41.570313 52.816406 43.726563 C 56.859375 46.453125 58.40625 45.1875 58.40625 46.351563 C 58.40625 47.4375 56.113281 48.335938 54.164063 48.75 C 53.160156 48.964844 52.046875 49.113281 51.804688 49.3125 C 50.914063 50.035156 51.417969 51.785156 50.53125 52.5 C 49.953125 52.964844 46.558594 51.035156 42.804688 52.652344 C 39.554688 54.050781 38.070313 56.851563 33.0625 56.851563 C 28.046875 56.851563 26.566406 54.050781 23.320313 52.652344 C 19.5625 51.035156 16.167969 52.964844 15.59375 52.5 C 14.703125 51.785156 15.207031 50.035156 14.320313 49.3125 C 14.074219 49.113281 12.964844 48.964844 11.953125 48.75 C 10.007813 48.335938 7.71875 47.4375 7.71875 46.351563 C 7.71875 45.1875 9.265625 46.453125 13.304688 43.726563 C 16.496094 41.570313 19.914063 36.128906 19.15625 34.425781 C 18.613281 33.210938 17.183594 32.972656 15.78125 32.289063 C 14.695313 31.761719 13.023438 31.101563 12.855469 30.152344 C 12.746094 29.542969 14.410156 28.425781 15.003906 28.480469 C 15.808594 28.558594 16.71875 29.402344 18.257813 29.402344 C 18.78125 29.402344 19.476563 29.3125 19.738281 28.855469 C 20.027344 28.355469 19.234375 23.75 19.4375 21.207031 C 20.019531 13.964844 25.21875 9.132813 33.0625 9.132813 Z M 33.0625 9.132813 "/>
<path style=" stroke:none;fill-rule:evenodd;fill:rgb(0%,0%,0%);fill-opacity:1;" d="M 19.304688 28.640625 C 19.414063 28.117188 19.058594 24.9375 19.011719 24.289063 C 18.941406 23.269531 18.878906 22.183594 18.957031 21.167969 C 19.589844 13.339844 25.328125 8.652344 33.0625 8.652344 C 40.789063 8.652344 46.53125 13.339844 47.164063 21.167969 C 47.246094 22.183594 47.183594 23.269531 47.109375 24.289063 C 47.0625 24.9375 46.703125 28.117188 46.816406 28.640625 C 46.996094 28.886719 47.601563 28.921875 47.867188 28.921875 C 49.253906 28.921875 49.996094 28.105469 51.074219 28.003906 C 51.953125 27.921875 53.914063 29.25 53.738281 30.234375 C 53.519531 31.484375 51.585938 32.21875 50.546875 32.71875 C 49.597656 33.183594 47.863281 33.601563 47.40625 34.621094 C 46.832031 35.902344 49.367188 39.542969 50.132813 40.492188 C 50.964844 41.523438 51.984375 42.582031 53.085938 43.328125 C 54.222656 44.09375 55.453125 44.75 56.789063 45.066406 C 57.320313 45.191406 58.304688 45.242188 58.660156 45.65625 C 58.828125 45.851563 58.882813 46.09375 58.882813 46.351563 C 58.882813 48.027344 55.601563 48.933594 54.269531 49.21875 C 53.886719 49.300781 52.359375 49.539063 52.097656 49.691406 C 51.414063 50.246094 51.894531 52.019531 50.832031 52.875 C 50.292969 53.304688 48.457031 52.726563 47.78125 52.617188 C 46.132813 52.355469 44.546875 52.421875 42.996094 53.09375 C 41.988281 53.523438 41.117188 54.125 40.226563 54.75 C 37.824219 56.4375 36.105469 57.332031 33.0625 57.332031 C 30.015625 57.332031 28.292969 56.4375 25.894531 54.75 C 25.003906 54.125 24.132813 53.523438 23.128906 53.09375 C 21.574219 52.421875 19.992188 52.355469 18.339844 52.617188 C 17.664063 52.726563 15.828125 53.304688 15.289063 52.875 C 14.226563 52.019531 14.703125 50.246094 14.023438 49.691406 C 13.765625 49.539063 12.238281 49.300781 11.855469 49.21875 C 10.519531 48.933594 7.238281 48.027344 7.238281 46.351563 C 7.238281 46.09375 7.292969 45.851563 7.460938 45.65625 C 7.820313 45.242188 8.800781 45.191406 9.328125 45.066406 C 10.664063 44.75 11.902344 44.09375 13.039063 43.328125 C 14.140625 42.582031 15.160156 41.523438 15.992188 40.492188 C 16.757813 39.542969 19.289063 35.902344 18.71875 34.621094 C 18.261719 33.601563 16.523438 33.183594 15.570313 32.71875 C 14.539063 32.21875 12.601563 31.484375 12.382813 30.234375 C 12.210938 29.25 14.167969 27.921875 15.042969 28.003906 C 16.128906 28.105469 16.867188 28.921875 18.257813 28.921875 C 18.519531 28.921875 19.128906 28.886719 19.304688 28.640625 Z M 50.265625 52.09375 C 50.890625 51.511719 50.464844 49.785156 51.503906 48.941406 C 51.890625 48.625 53.519531 48.398438 54.066406 48.28125 C 54.851563 48.113281 57.921875 47.261719 57.921875 46.351563 C 57.921875 46.335938 57.921875 46.304688 57.917969 46.28125 C 57.738281 46.207031 56.601563 46.007813 56.417969 45.960938 C 55.027344 45.609375 53.734375 44.925781 52.542969 44.125 C 51.363281 43.324219 50.277344 42.203125 49.382813 41.09375 C 48.316406 39.765625 45.722656 36.03125 46.527344 34.230469 C 47.164063 32.800781 48.851563 32.480469 50.132813 31.855469 C 50.738281 31.5625 52.628906 30.789063 52.789063 30.089844 C 52.695313 29.738281 51.511719 28.945313 51.164063 28.960938 C 50.816406 28.992188 50.285156 29.273438 49.953125 29.410156 C 49.269531 29.703125 48.617188 29.878906 47.867188 29.878906 C 47.183594 29.878906 46.34375 29.746094 45.96875 29.097656 C 45.65625 28.550781 46.097656 24.984375 46.152344 24.21875 C 46.222656 23.253906 46.285156 22.210938 46.207031 21.246094 C 45.617188 13.917969 40.289063 9.613281 33.0625 9.613281 C 25.828125 9.613281 20.507813 13.917969 19.914063 21.246094 C 19.835938 22.210938 19.902344 23.253906 19.96875 24.21875 C 20.023438 24.984375 20.46875 28.550781 20.152344 29.097656 C 19.78125 29.746094 18.941406 29.878906 18.257813 29.878906 C 17.503906 29.878906 16.855469 29.703125 16.164063 29.410156 C 15.839844 29.273438 15.304688 28.992188 14.957031 28.960938 C 14.613281 28.945313 13.429688 29.738281 13.332031 30.089844 C 13.496094 30.789063 15.386719 31.5625 15.992188 31.855469 C 17.273438 32.480469 18.953125 32.800781 19.59375 34.230469 C 20.402344 36.03125 17.808594 39.765625 16.738281 41.09375 C 15.84375 42.203125 14.757813 43.324219 13.574219 44.125 C 12.386719 44.925781 11.097656 45.609375 9.699219 45.960938 C 9.519531 46.007813 8.386719 46.207031 8.203125 46.28125 C 8.199219 46.304688 8.199219 46.335938 8.199219 46.351563 C 8.199219 47.261719 11.269531 48.113281 12.054688 48.28125 C 12.605469 48.398438 14.230469 48.625 14.621094 48.941406 C 15.65625 49.785156 15.230469 51.511719 15.855469 52.09375 C 16.164063 52.105469 18.09375 51.679688 18.4375 51.632813 C 20.183594 51.382813 21.871094 51.507813 23.507813 52.210938 C 24.578125 52.671875 25.496094 53.300781 26.445313 53.964844 C 28.683594 55.535156 30.226563 56.371094 33.0625 56.371094 C 35.898438 56.371094 37.441406 55.535156 39.671875 53.964844 C 40.621094 53.300781 41.539063 52.671875 42.613281 52.210938 C 44.246094 51.507813 45.941406 51.382813 47.683594 51.632813 C 48.027344 51.679688 49.957031 52.105469 50.265625 52.09375 Z M 50.265625 52.09375 "/>
</g>
</svg>
