<?xml version="1.0" encoding="UTF-8"?>
<svg xmlns="http://www.w3.org/2000/svg" xmlns:xlink="http://www.w3.org/1999/xlink" width="210.7pt" height="123pt" viewBox="0 0 210.7 123" version="1.1">
<defs>
<clipPath id="clip1">
  <path d="M 35 31 L 210.699219 31 L 210.699219 92 L 35 92 Z M 35 31 "/>
</clipPath>
</defs>
<g id="surface1">
<path style="fill-rule:evenodd;fill:rgb(10.594177%,9.812927%,9.423828%);fill-opacity:1;stroke-width:2;stroke-linecap:butt;stroke-linejoin:miter;stroke:rgb(0%,0%,0%);stroke-opacity:1;stroke-miterlimit:4;" d="M 583.359375 1.40625 L 583.359375 43.125 C 426.71875 59.375 302.1875 114.375 208.90625 207.65625 C 115.625 300.9375 60.625 425.898438 44.335938 583.4375 L 1.328125 583.4375 L 1.328125 647.65625 L 44.335938 647.65625 C 57.109375 799.921875 111.679688 923.984375 207.578125 1020.351563 C 303.515625 1116.71875 428.476563 1172.578125 583.359375 1188.007813 L 583.359375 1229.6875 L 647.578125 1229.6875 L 647.578125 1188.007813 C 802.460938 1172.578125 927.890625 1116.289063 1024.6875 1019.023438 C 1121.484375 921.796875 1176.015625 798.164063 1187.929688 647.65625 L 1229.609375 647.65625 L 1229.609375 583.4375 L 1187.929688 583.4375 C 1176.015625 432.96875 1121.484375 308.867188 1024.21875 211.210938 C 926.992188 113.945313 801.601563 57.617188 647.578125 43.125 L 647.578125 1.40625 Z M 647.578125 370.742188 L 647.578125 106.484375 C 784.414063 121.875 893.984375 170.703125 976.289063 253.4375 C 1058.984375 335.703125 1108.28125 446.171875 1124.570313 583.4375 L 860.273438 583.4375 L 860.273438 647.65625 L 1124.570313 647.65625 C 1091.132813 928.828125 931.835938 1087.695313 647.578125 1124.648438 L 647.578125 860.351563 L 583.359375 860.351563 L 583.359375 1124.648438 C 445.625 1108.359375 335.625 1059.53125 253.789063 977.65625 C 171.523438 895.820313 122.226563 785.820313 105.9375 647.65625 L 370.664063 647.65625 L 370.664063 583.4375 L 108.59375 583.4375 C 120.46875 448.359375 168.4375 339.21875 251.601563 255.195313 C 335.195313 171.601563 445.625 121.875 583.359375 106.484375 L 583.359375 370.742188 Z M 1810.976563 119.726563 C 1810.898438 119.609375 1810.859375 119.453125 1810.78125 119.335938 C 1808.984375 115.429688 1808.085938 111.09375 1808.085938 106.40625 C 1808.085938 97.617188 1810.898438 90.429688 1816.5625 84.765625 C 1822.226563 79.101563 1829.414063 76.289063 1838.203125 76.289063 C 1846.601563 76.289063 1853.789063 79.179688 1859.765625 85.039063 C 1865.703125 90.859375 1868.671875 97.890625 1868.671875 106.25 C 1868.671875 114.570313 1865.664063 121.757813 1859.648438 127.8125 C 1853.710938 133.867188 1846.523438 136.875 1838.203125 136.875 C 1829.84375 136.875 1822.773438 133.90625 1816.875 127.96875 C 1814.375 125.46875 1812.421875 122.734375 1810.976563 119.726563 Z M 1810.234375 280.976563 L 1810.234375 208.476563 C 1820.703125 209.765625 1831.210938 211.132813 1841.796875 211.132813 C 1870.039063 211.132813 1894.21875 200.976563 1914.375 180.625 C 1934.53125 160.273438 1944.609375 135.742188 1944.609375 107.070313 C 1944.609375 77.734375 1934.414063 53.046875 1913.90625 32.96875 C 1893.398438 12.851563 1868.242188 2.8125 1838.359375 2.8125 C 1823.359375 2.8125 1808.75 6.09375 1794.492188 12.65625 C 1780.234375 19.179688 1768.4375 28.007813 1759.257813 39.140625 C 1743.125 58.476563 1735.117188 83.398438 1735.117188 114.140625 L 1735.117188 280.976563 Z M 2087.421875 209.0625 L 2087.421875 128.75 C 2082.226563 131.679688 2077.421875 133.125 2073.164063 133.125 C 2059.53125 133.125 2052.65625 122.695313 2052.65625 101.875 L 2052.65625 6.835938 L 1977.539063 6.835938 L 1977.539063 116.328125 C 1977.539063 145.195313 1985.429688 168.28125 2001.25 185.507813 C 2017.03125 202.695313 2038.125 211.289063 2064.53125 211.289063 C 2070.429688 211.289063 2078.046875 210.507813 2087.421875 209.0625 Z M 1639.492188 96.835938 C 1652.578125 96.835938 1663.90625 92.109375 1673.28125 82.578125 C 1682.734375 73.046875 1687.460938 61.757813 1687.460938 48.671875 C 1687.460938 35.507813 1682.8125 24.375 1673.4375 15.195313 C 1664.023438 6.015625 1652.695313 1.40625 1639.492188 1.40625 C 1625.625 1.40625 1614.335938 5.859375 1605.429688 14.804688 C 1596.484375 23.710938 1592.03125 35 1592.03125 48.867188 C 1592.03125 62.226563 1596.640625 73.59375 1605.898438 82.851563 C 1615.15625 92.1875 1626.328125 96.835938 1639.492188 96.835938 Z M 977.304688 96.835938 C 990.390625 96.835938 1001.71875 92.109375 1011.09375 82.578125 C 1020.585938 73.046875 1025.3125 61.757813 1025.3125 48.671875 C 1025.3125 35.507813 1020.625 24.375 1011.25 15.195313 C 1001.835938 6.015625 990.546875 1.40625 977.304688 1.40625 C 963.476563 1.40625 952.148438 5.859375 943.242188 14.804688 C 934.335938 23.710938 929.882813 35 929.882813 48.867188 C 929.882813 62.226563 934.453125 73.59375 943.710938 82.851563 C 952.96875 92.1875 964.140625 96.835938 977.304688 96.835938 Z M 1198.242188 105.429688 C 1198.242188 113.75 1195.234375 120.9375 1189.21875 126.953125 C 1183.242188 133.007813 1176.09375 136.015625 1167.773438 136.015625 C 1159.414063 136.015625 1152.304688 133.046875 1146.445313 127.148438 C 1140.585938 121.289063 1137.65625 114.023438 1137.65625 105.546875 C 1137.65625 96.757813 1140.46875 89.570313 1146.132813 83.945313 C 1151.796875 78.28125 1158.984375 75.429688 1167.773438 75.429688 C 1176.171875 75.429688 1183.359375 78.359375 1189.296875 84.179688 C 1195.46875 90.234375 1198.242188 96.5625 1198.242188 105.429688 Z M 1424.140625 209.0625 L 1424.140625 128.75 C 1418.945313 131.679688 1414.140625 133.125 1409.882813 133.125 C 1396.25 133.125 1389.375 122.695313 1389.375 101.875 L 1389.375 6.835938 L 1314.257813 6.835938 L 1314.257813 116.328125 C 1314.257813 145.195313 1322.148438 168.28125 1337.96875 185.507813 C 1353.75 202.695313 1374.84375 211.289063 1401.25 211.289063 C 1407.148438 211.289063 1414.765625 210.507813 1424.140625 209.0625 Z M 1513.125 280.976563 L 1513.125 204.296875 L 1546.875 204.296875 L 1546.875 124.960938 L 1513.125 124.960938 C 1513.125 109.0625 1515.664063 98.007813 1520.664063 91.992188 C 1525.664063 86.015625 1534.921875 83.007813 1548.320313 83.007813 L 1548.320313 4.023438 C 1544.414063 3.90625 1541.523438 3.828125 1539.648438 3.828125 C 1522.65625 3.828125 1506.640625 7.8125 1491.523438 15.664063 C 1476.445313 23.554688 1464.375 34.257813 1455.273438 47.851563 C 1443.75 65.117188 1438.007813 88.007813 1438.007813 116.523438 L 1438.007813 280.976563 Z M 1166.875 2.578125 C 1136.757813 2.578125 1111.601563 12.539063 1091.523438 32.34375 C 1071.445313 52.148438 1061.40625 76.953125 1061.40625 106.875 C 1061.40625 135.9375 1071.5625 160.546875 1091.875 180.78125 C 1112.148438 200.976563 1136.835938 211.132813 1165.898438 211.132813 C 1198.28125 211.132813 1223.828125 201.679688 1242.460938 182.695313 C 1261.210938 163.75 1270.507813 137.851563 1270.507813 105.078125 L 1270.507813 6.835938 L 1198.398438 6.835938 C 1187.96875 5 1177.5 2.578125 1166.875 2.578125 Z M 1166.875 2.578125 " transform="matrix(0.1,0,0,-0.1,0,123)"/>
<path style=" stroke:none;fill-rule:evenodd;fill:rgb(100%,100%,100%);fill-opacity:1;" d="M 154.703125 33.75 L 194.957031 33.75 C 195.632813 33.75 196.113281 33.75 196.394531 33.75 C 199.382813 33.75 202.171875 34.875 204.765625 37.132813 C 206.289063 38.539063 207.332031 40.078125 207.894531 41.738281 C 208.460938 43.402344 208.742188 45.476563 208.742188 47.957031 L 208.742188 58.273438 C 208.742188 61.148438 207.785156 63.828125 205.867188 66.308594 C 204.34375 68.222656 202.667969 69.535156 200.835938 70.238281 C 199.003906 70.945313 196.703125 71.296875 193.941406 71.296875 L 171.445313 71.296875 L 171.445313 89.140625 L 154.703125 89.140625 Z M 37.148438 33.832031 L 88.738281 33.832031 L 88.738281 47.53125 L 71.738281 47.53125 L 71.738281 89.140625 L 54.148438 89.140625 L 54.148438 47.53125 L 37.148438 47.53125 Z M 93.472656 49.308594 C 93.472656 47.730469 93.671875 46.136719 94.066406 44.53125 C 94.460938 42.925781 95.164063 41.386719 96.179688 39.921875 C 97.703125 37.78125 99.449219 36.230469 101.421875 35.269531 C 103.394531 34.3125 105.765625 33.832031 108.527344 33.832031 L 132.207031 33.832031 C 134.292969 33.945313 135.925781 34.085938 137.109375 34.253906 C 140.605469 34.820313 143.15625 35.847656 144.765625 37.34375 C 146.371094 38.835938 147.5 40.402344 148.148438 42.035156 C 148.796875 43.671875 149.121094 45.671875 149.121094 48.039063 L 149.121094 75.527344 C 149.121094 78.625 148.019531 81.445313 145.820313 83.984375 C 143.058594 87.421875 139.5625 89.140625 135.335938 89.140625 L 105.058594 89.140625 C 103.535156 89.140625 102.253906 88.886719 101.210938 88.378906 C 100.167969 87.871094 99 87.070313 97.703125 85.96875 C 96.40625 84.871094 95.375 83.164063 94.613281 80.855469 C 93.855469 78.542969 93.472656 76.089844 93.472656 73.496094 Z M 110.21875 74.511719 L 132.375 74.511719 L 132.375 48.464844 L 110.21875 48.464844 Z M 171.445313 59.710938 L 191.320313 59.710938 L 191.320313 48.378906 L 171.445313 48.378906 Z M 171.445313 59.710938 "/>
<g clip-path="url(#clip1)" clip-rule="nonzero">
<path style="fill:none;stroke-width:40.976;stroke-linecap:round;stroke-linejoin:round;stroke:rgb(10.594177%,9.812927%,9.423828%);stroke-opacity:1;stroke-miterlimit:4;" d="M 1547.03125 892.5 L 1949.570313 892.5 C 1956.328125 892.5 1961.132813 892.5 1963.945313 892.5 C 1993.828125 892.5 2021.71875 881.25 2047.65625 858.671875 C 2062.890625 844.609375 2073.320313 829.21875 2078.945313 812.617188 C 2084.609375 795.976563 2087.421875 775.234375 2087.421875 750.429688 L 2087.421875 647.265625 C 2087.421875 618.515625 2077.851563 591.71875 2058.671875 566.914063 C 2043.4375 547.773438 2026.679688 534.648438 2008.359375 527.617188 C 1990.039063 520.546875 1967.03125 517.03125 1939.414063 517.03125 L 1714.453125 517.03125 L 1714.453125 338.59375 L 1547.03125 338.59375 Z M 371.484375 891.679688 L 887.382813 891.679688 L 887.382813 754.6875 L 717.382813 754.6875 L 717.382813 338.59375 L 541.484375 338.59375 L 541.484375 754.6875 L 371.484375 754.6875 Z M 934.726563 736.914063 C 934.726563 752.695313 936.71875 768.632813 940.664063 784.6875 C 944.609375 800.742188 951.640625 816.132813 961.796875 830.78125 C 977.03125 852.1875 994.492188 867.695313 1014.21875 877.304688 C 1033.945313 886.875 1057.65625 891.679688 1085.273438 891.679688 L 1322.070313 891.679688 C 1342.929688 890.546875 1359.257813 889.140625 1371.09375 887.460938 C 1406.054688 881.796875 1431.5625 871.523438 1447.65625 856.5625 C 1463.710938 841.640625 1475 825.976563 1481.484375 809.648438 C 1487.96875 793.28125 1491.210938 773.28125 1491.210938 749.609375 L 1491.210938 474.726563 C 1491.210938 443.75 1480.195313 415.546875 1458.203125 390.15625 C 1430.585938 355.78125 1395.625 338.59375 1353.359375 338.59375 L 1050.585938 338.59375 C 1035.351563 338.59375 1022.539063 341.132813 1012.109375 346.210938 C 1001.679688 351.289063 990 359.296875 977.03125 370.3125 C 964.0625 381.289063 953.75 398.359375 946.132813 421.445313 C 938.554688 444.570313 934.726563 469.101563 934.726563 495.039063 Z M 1102.1875 484.882813 L 1323.75 484.882813 L 1323.75 745.351563 L 1102.1875 745.351563 Z M 1714.453125 632.890625 L 1913.203125 632.890625 L 1913.203125 746.210938 L 1714.453125 746.210938 Z M 1714.453125 632.890625 " transform="matrix(0.1,0,0,-0.1,0,123)"/>
</g>
</g>
</svg>
