<?xml version="1.0" encoding="iso-8859-1"?>
<!-- Generator: Adobe Illustrator 23.0.1, SVG Export Plug-In . SVG Version: 6.00 Build 0)  -->
<svg version="1.1" id="Layer_1" xmlns="http://www.w3.org/2000/svg" xmlns:xlink="http://www.w3.org/1999/xlink" x="0px" y="0px"
	 viewBox="0 0 512 512" style="enable-background:new 0 0 512 512;" xml:space="preserve">
<g>
	<path style="fill:#4C8CCA;" d="M254.793,64.676c-25.558,0.171-49.629,6.422-70.968,17.392l1.759,3.372
		c20.57-10.578,43.486-16.435,67.306-16.884l0.192,28.709c-19.384,0.42-37.773,5.28-54.018,13.509l1.759,3.372
		c16.053-8.131,33.866-12.6,52.286-13.014l0.174,26.003c-14.465,0.387-28.041,3.958-40.249,10.033l0,0
		c-9.133,4.508-17.388,10.46-24.574,17.468l-18.448-18.34c9.199-9.052,19.662-16.469,30.909-22.151l-1.759-3.372l0,0
		c-11.727,5.975-22.478,13.684-31.772,22.833l-20.487-20.26c11.594-11.485,24.648-20.852,38.778-28.1l-1.759-3.372
		c-30.855,15.77-55.857,41.362-70.984,72.59l0,0c-10.274,21.239-16.094,45.155-15.925,70.385c0.104,15.466,2.423,30.531,6.666,44.81
		l3.755-0.992c-4.045-13.507-6.261-27.605-6.55-42.007l28.548-0.191c0.273,11.985,2.185,23.766,5.635,34.956l3.755-0.992
		c-3.352-10.901-5.261-22.295-5.533-34.087l25.944-0.174c0.122,3.866,0.437,7.634,0.944,11.304
		c-1.831,0.206-3.467,0.797-3.467,0.797l-0.754,2.615c-1.734,0.302-2.871,3.306-2.871,3.306c-1.443,0.493-2.589,2.337-2.103,2.817
		c0.485,0.48-0.767,0.682-0.767,0.682l0.024,3.577l-0.764,1.165l0.219,3.865c0.964-0.006,0.784,1.831,0.784,1.831
		c-1.638,0.204-1.238,2.328-1.238,2.328l-3.368,1.183l-0.669,0.971l-4.148-0.166l-1.15,1.168l0,0
		c-0.393-1.061-0.689-2.122-1.082-3.183l-3.755,0.992c0.099,0.386,0.198,0.772,0.394,1.157l-4.726,0.032l-0.295-0.771l-1.642-0.279
		l-0.205-1.835l-2.41,0.209l-0.476,0.97l-2.603,0.211c0.204,1.642-2.577,4.077-2.871,3.403c-0.294-0.675-2.138-2.402-1.273-2.795
		c0.77-0.295,2.889-0.696,2.889-0.696l-0.008-1.16l-5.981-0.153l-0.669,0.971l-2.41,0.209l0.017,2.61l-1.155,0.298
		c-0.768,0.488,0.208,2.319,0.208,2.319c1.165,1.152-0.173,2.901-0.173,2.901c-0.958,0.973,0.79,2.798,0.79,2.798
		c1.256,0.282-0.763,1.262-0.763,1.262c0.3,1.641,1.268,2.118,1.268,2.118c-0.953,1.65,0.691,2.412,0.691,2.412l0.212,2.802
		l1.162,0.669l0.012,1.837l0.683,1.155l2.604-0.017l-0.122-3.866c-2.236-2.595,1.907-3.299,2.106-2.334
		c0.199,0.965,1.939,1.437,1.939,1.437c0.306,2.415,3.112,3.846,3.868,1.424s1.44-0.976,1.93,0.18
		c0.49,1.157,3.595,3.939,3.595,3.939l2.411-0.016l0.305,2.318c2.699-0.211,3.57,0.169,4.655,3.836
		c1.183,3.762,4.179,4.709,4.179,4.709l2.217-0.208c-0.013-1.933,2.22,0.275,2.227,1.338c0.006,0.967,4.372,4.708,4.372,4.708
		l4.347,0.938l0.776,0.671c2.723,3.365,5.541,6.536,8.553,9.706l-20.118,20.435c-18.063-18.343-30.943-40.587-38.145-64.609
		l-3.755,0.992c7.596,25.276,21.256,48.676,40.481,67.784c13.01,12.867,27.934,23.304,44.091,30.832l1.906-3.396
		c-15.287-7.148-29.337-16.817-41.86-28.914l20.118-20.435c10.581,10.176,22.692,18.312,35.655,24.122l1.906-3.396
		c-12.77-5.715-24.493-13.563-34.879-23.45l3.736-3.795c0.195,0.385,0.391,0.771,0.395,1.351c0.306,2.415,1.46,1.924,1.46,1.924
		l9.161-0.255l3.164-2.825l8.197-0.248c4.146-0.221,1.6-5.908,0.732-5.902c-0.485-0.383-0.586-1.156-0.496-2.027
		c6.592,4.983,13.66,9.092,21.108,12.232l1.906-3.396c-8.608-3.519-16.743-8.491-24.017-14.533l-4.367-4.031l20.022-20.338
		c6.6,6.143,14.154,10.732,22.371,13.577l0,0c2.223,0.758,4.543,1.42,6.861,1.984c-0.383,0.389-0.574,0.681-0.476,0.873
		c0.295,0.771-1.243,1.652-1.243,1.652l-1.443,0.493l-0.955,1.456l-1.924,0.69l-0.267,3.385l-0.96,0.683l0.01,1.45l-1.155,0.298
		l0.005,0.773l-1.638,0.204l0.981,2.41l1.258,0.668c2.22,0.275,1.275,3.085,1.275,3.085l1.255,0.185l0.687,1.832l1.271,2.602
		c0.495,1.93,1.939,1.437,2.613,1.336c0.674-0.198,1.267,1.925,1.267,1.925l6.367,0.151c0,0-0.285,0.679,0.778,0.961
		c0.58,0.189,3.089,0.366,5.307,0.351l0.019,2.9c-11.864-0.114-23.262-2.648-33.901-7.023l-1.906,3.396
		c11.219,4.662,23.294,7.384,35.833,7.494l0.174,26.003c-17.073-0.176-33.59-3.835-48.778-10.597l-1.906,3.396
		c15.769,7.048,32.963,10.896,50.711,11.067l0.192,28.709c-22.763-0.138-44.787-5.114-64.816-14.55l-1.906,3.396
		c21.19,10.008,44.565,15.169,68.677,15.007c25.269-0.169,49.63-6.229,71.546-17.493c14.802-7.639,28.527-17.688,40.599-29.853
		c12.645-12.845,22.867-27.51,30.381-43.318l0,0c10.177-21.432,15.516-45.152,15.352-69.608
		c-0.139-20.783-4.229-40.959-11.973-59.661c-8.039-19.473-19.926-37.374-35.364-52.641c-15.535-15.363-33.553-27.036-53.281-34.831
		l0,0C295.52,68.367,275.432,64.538,254.793,64.676L254.793,64.676z M256.748,68.529c19.483,0.063,38.509,3.802,56.11,10.838l0,0
		c18.568,7.319,35.713,18.321,50.566,32.626l-17.052,17.321c-0.577,0.197-1.253,0.202-1.64,0.011
		c-1.161-0.476,0.471-1.647,0.471-1.647l-0.008-1.257l-0.971-0.96c0,0-2.699,0.308-2.895-0.174s-0.693-2.605-0.693-2.605
		l-0.212-2.802l-1.161-0.476l-0.199-0.965l-1.735,0.205l-0.013-1.933l-0.966-0.284l-0.968-0.477l-0.206-1.932l-3.57-0.169
		l-1.168-1.636l-1.267-1.925l-4.053-0.263l-0.971-0.96l-1.642-0.279l-1.161-0.476l-0.477,0.777l-3.085,0.214l-0.186,0.968
		c-0.961,0.49-3.565,0.507-5.591,0.521c-3.194-1.622-6.195-3.245-9.483-4.577l-1.326,3.586c2.708,1.045,4.935,2.384,7.548,3.72
		c-0.189,0.581-0.379,0.969-0.765,0.972c-0.772,0.005-0.468,2.13-0.468,2.13s2.122-0.014,2.702,0.175
		c0.676,0.189,0.687,1.832,0.687,1.832c2.41-0.209,3.396,3.071,3.113,3.943c-0.284,0.775,0.97,0.767,0.97,0.767
		s0.017,2.61-0.267,3.289c-0.285,0.679,2.13,1.146,2.715,2.109c0.682,0.962-0.261,4.255-0.742,4.452
		c-0.481,0.197,1.258,0.668,1.167,1.442c-0.188,0.775,0.482-0.003,0.684,1.349c0.201,1.255,0.509,4.057,0.509,4.057l2.22,0.178
		c0.275-2.129,4.422-2.253,5.099-1.968c2.707,0.949,4.857,5.188,4.864,6.154c0.006,0.967-1.728,1.172-1.728,1.172l0.104,1.063
		l-5.556,5.644c-0.581-0.383-1.161-0.572-1.449-0.28c-0.768,0.488-0.505-3.38-0.505-3.38s1.44-0.976,2.119-0.498
		s-5.455-8.084-6.8-7.301c-1.249,0.782-4.152-0.746-4.066-2.293c0.183-1.451-5.829-6.341-5.829-6.341s-1.937-1.244-2.22-0.275
		c-0.283,0.969-0.953,1.65,0.014,2.127c0.968,0.477,0.766-0.778,1.931,0.277c1.165,1.152,3.2,2.589,2.435,3.56
		c-0.765,0.972-1.728,1.268-1.728,1.268l1.166,1.346l1.736-0.012l0.308,2.801c0,0,1.935,0.954,2.425,2.11
		c0.294,0.771,0.394,1.254,0.301,1.738c-3.587-2.683-7.365-5.171-11.238-7.368c-0.002-0.29,0.093-0.581-0.006-0.87
		c-0.297-1.158,1.243-1.652,2.12-0.304l1.638-0.204l0.28-1.452l-2.231-1.822l-1.736,0.012c0,0-0.185,1.258-1.249,0.782
		c-1.161-0.476-0.484-0.287-1.45-0.474c-0.869-0.188-0.664,1.648-0.465,2.517c-2.516-1.24-5.031-2.383-7.643-3.429l0,0
		c-10.928-4.374-22.615-6.809-34.769-6.921l-0.099-14.79c1.061-0.007,1.541-0.397,1.634-0.784c0.188-0.678,0.284-0.775,1.247-0.975
		c0.963-0.2-0.207-2.125-1.17-1.926c-0.674,0.101-1.351-0.088-1.74-0.568l-0.05-7.443c15.433,0.09,30.306,3.084,44.233,8.694
		l1.326-3.586c-14.313-5.704-29.766-8.791-45.681-8.878L256.748,68.529L256.748,68.529z M283.606,75.213l-1.537,0.977l-1.065-0.67
		l-0.476,0.873l1.259,0.765l0.291,0.191l0.288-0.195l1.728-1.172L283.606,75.213L283.606,75.213z M290.961,79.031l-1.247,1.072
		l-0.777-0.865l-0.671,0.681l1.165,1.152l0.291,0.288l0.287-0.292l1.631-1.268L290.961,79.031L290.961,79.031z M136.364,80.936
		c-15.872,6.293-32.997,12.788-43.207,29.29c-6.012,9.61-6.804,21.023-11.464,30.914c8.817-8.373,18.999-14.628,26.456-24.538
		C117.04,104.652,124.763,91.26,136.364,80.936L136.364,80.936z M373.332,79.349c11.739,10.265,19.736,23.455,28.786,35.285
		c7.589,9.906,17.854,15.928,26.782,24.181c-4.793-9.925-5.833-21.228-11.876-30.758C406.497,91.694,389.384,85.429,373.332,79.349
		L373.332,79.349z M279.407,82.008c-0.674,0.101-1.348,0.396-1.442,0.686c-0.188,0.678-1.152,0.781-1.152,0.781l-3.663,0.315
		c-0.283,0.969-2.207,1.658-2.405,0.983l0,0c-0.396-1.447-2.399,1.853-0.273,2.419c2.126,0.662,4.147-0.028,4.147-0.028l0.476-0.97
		l8.006,0.14c0.671-0.681,0.953-1.65,0.953-1.65s1.924-0.69,2.699-0.308c0.773,0.285,0.177-2.321-0.688-1.929
		c-0.77,0.295-2.41,0.209-2.41,0.209l-2.893,0.019C280.758,82.096,280.082,81.907,279.407,82.008L279.407,82.008z M265.638,85.387
		l-2.117,0.788l-2.209,1.465l-2.409,0.306l-1.244,1.458l5.115,0.449l0.975,1.637l3.667,0.265l2.427,2.4
		c2.126,0.662,2.602-0.307,1.244-1.458l0,0l-2.136-2.112l-0.012-1.837l-0.68-0.672l-0.691-2.315L265.638,85.387L265.638,85.387z
		 M93.495,102.973c-8.087,2.181-14.9,7.447-20.931,14.254c-12.636,14.295-11.435,35.167-9.574,53.812
		c0.521,5.797,0.264,10.632-0.275,16.532c3.805-7.952,10.023-15.534,17.509-21.191c16.505-12.677,34.528-29.038,34.675-50.307
		c-5.395,15.406-22.037,21.898-33.058,32.412c-5.846,5.549-10.335,12.249-12.892,19.227l-0.388-0.287
		c1.309-6.196,3.876-11.723,5.668-17.728C78.748,133.329,77.75,113.905,93.495,102.973L93.495,102.973z M416.589,100.81
		c15.793,10.721,15.055,30.157,19.987,46.461c1.776,5.885,4.417,11.474,5.905,17.651l-0.384,0.293
		c-2.651-6.942-7.228-13.582-13.148-19.052c-11.162-10.462-27.889-16.634-33.489-31.967c0.432,21.361,18.673,37.479,35.345,49.838
		c7.464,5.557,13.88,13.054,17.791,20.955c-0.715-5.892-1.037-10.82-0.496-16.527c1.611-18.668,2.532-39.555-10.294-53.679
		C431.588,108.057,424.704,102.786,416.589,100.81L416.589,100.81z M329.52,104.583c-1.254,0.008-3.177,0.891-2.978,1.857
		c0.198,0.772,0.783,1.638,2.135,1.919l2.416,0.757c0,0,3.014,3.557,2.906,1.817c-0.322-4.928-2.638-5.009-3.416-5.971
		C330.389,104.771,330.002,104.58,329.52,104.583L329.52,104.583z M279.285,106.949l-0.665,1.454l0.871,0.381l0.665-1.454
		L279.285,106.949L279.285,106.949z M282.285,108.476c-0.097-0.096-0.957,1.166-1.629,1.558c0.774,0.381,1.839,0.954,1.839,0.954
		c1.254-0.008,2.128,0.952,2.132,1.436c0.003,0.483,1.738,0.278,1.738,0.278l0.185-1.161l-1.265-1.635l-1.163-0.766
		C284.123,109.237,282.289,109.056,282.285,108.476L282.285,108.476L282.285,108.476z M280.656,110.034
		c-0.774-0.382-1.258-0.572-0.386,0.003C280.367,110.132,280.56,110.131,280.656,110.034z M275.348,109.586l-0.09,0.967l1.351,0.088
		l0.975,1.54l0.768-0.488l-1.17-1.829l-0.098-0.193l-0.193,0.001C276.893,109.769,275.348,109.586,275.348,109.586z M238.34,113.894
		c-0.868,0.006-1.638,0.204-1.636,0.494c0.198,0.772,1.459,1.827,1.459,1.827s2.412,0.177,2.609,0.659s1.741,0.665,1.93,0.18
		c0.19-0.485,0.762-1.455-0.685-1.445c-1.447,0.01-1.163-0.766-1.649-1.342C240.077,113.979,239.208,113.888,238.34,113.894
		L238.34,113.894z M366.142,114.682c14.469,14.597,25.578,31.633,33.225,50.142l0,0c7.255,17.642,11.241,36.659,11.564,56.184
		l-28.645,0.192c-0.298-15.658-3.486-30.814-9.174-44.89c-0.785-2.025-1.667-4.049-2.645-6.072c0.284-0.872,0.76-1.745,1.823-1.462
		c1.643,0.472,0.458-3.58,0.458-3.58s-2.229-1.628-2.138-2.402c0.188-0.775-2.234-2.402-2.143-3.079
		c0.188-0.678-2.135-1.919-1.946-2.597c0.188-0.678-1.174-2.409-1.174-2.409l-2.427-2.304l-0.299-1.448l-1.93-0.18l-3.89-4.711
		l0.184-1.355l-1.159-0.186l-0.012-1.837l-1.162-0.669l-1.737-0.182l-3.594-3.843l-0.302-1.835l-1.736,0.012l0.271-2.805
		L366.142,114.682L366.142,114.682z M279.051,115.265l0.01,1.45l1.737,0.182l-0.491-1.35L279.051,115.265L279.051,115.265z
		 M144.123,116.168l20.39,20.261c-9.386,9.826-17.22,21.092-23.02,33.602c-7.608,16.098-11.925,34.011-12.088,52.959l-28.645,0.192
		c0.132-23.491,5.478-46.148,15.371-66.708l0,0C123.172,141.829,132.533,128.232,144.123,116.168L144.123,116.168z M286.915,122.849
		c-0.193,0.001-0.289,0.099-0.288,0.195c0.003,0.483,0.678,0.479,0.974,1.444c0.296,0.965,0.21,2.609,1.659,2.889
		s1.741,0.665,1.937,1.244c0.197,0.675,1.934,0.76,1.934,0.76l1.258,0.668l3.88,3.261l-0.008-1.257c0,0-0.201-1.255-0.973-1.25
		c-0.772,0.005-2.225-0.952-1.94-1.63c0.285-0.679-2.709-1.239-2.709-1.239s-2.718-2.592-1.752-2.308
		c0.966,0.284,0.474-1.163,0.474-1.163s-1.927,0.303-2.41,0.209c-0.484-0.19-0.3-1.641-0.3-1.641S287.396,122.749,286.915,122.849
		L286.915,122.849z M198.771,124.599l-0.671,0.681l0.971,0.96l0.671-0.681L198.771,124.599L198.771,124.599z M60.03,132.295
		c-0.386-0.094-0.673,0.295-0.962,0.393c-10.9,14.187-18.127,29.605-18.001,48.455c0.156,23.296,13.671,39.543,15.457,61.378
		c3.319-22.836,22.307-39.204,32.106-59.473c3.805-7.856,6.157-16.765,7.16-25.375c-1.422,3.683-3.618,7.081-6.685,10.002
		c-12.842,12.363-27.903,24.451-30.68,41.87c-0.369,2.516-0.641,5.031-1.3,7.452c-0.577,0.294-0.581-0.383-0.775-0.575l1.496-21.471
		C59.248,174.061,48.001,150.839,60.03,132.295L60.03,132.295z M450.444,129.681c12.276,18.382,1.34,41.752,3.024,62.718
		l1.783,21.449c-0.192,0.195-0.188,0.775-0.768,0.585c-0.691-2.412-0.997-4.923-1.4-7.434
		c-3.009-17.284-18.329-29.265-31.238-41.455c-3.106-2.879-5.347-6.248-6.818-9.911c1.118,8.596,3.589,17.473,7.499,25.277
		c10.069,20.04,29.274,36.152,32.899,59.038c1.493-21.954,14.79-38.283,14.634-61.579c-0.126-18.85-7.56-34.267-18.648-48.21
		C451.024,129.87,450.829,129.582,450.444,129.681L450.444,129.681z M253.308,131.001l0.192,28.709
		c-8.968,0.35-17.537,2.534-25.229,6.162l1.759,3.372l0,0c7.307-3.432,15.203-5.419,23.495-5.764l0.175,26.099
		c-3.374,0.216-6.649,0.915-9.727,2.095l0,0l-0.205-1.835l0.768-0.488l-1.257-0.475l-0.956,1.263l-0.28,1.452l-1.638,0.301
		l0.005,0.773l-1.157,0.008l0.006,0.967c-2.306,1.272-4.514,2.834-6.527,4.684l-18.545-18.34
		c4.696-4.478,10.072-8.188,15.841-10.933l-1.759-3.372c-6.153,2.941-11.818,6.846-16.705,11.615l-20.39-20.164
		c7.091-6.911,15.059-12.474,23.711-16.786C226.616,134.659,239.71,131.285,253.308,131.001L253.308,131.001z M257.166,130.975
		c11.575,0.116,22.875,2.457,33.32,6.64c2.901,1.141,5.707,2.475,8.417,3.907c0.097,0.096,0.291,0.191,0.484,0.287
		c4.549,2.386,8.909,5.257,12.981,8.42l0,0c0.201,1.159,1.458,1.634,1.458,1.634l0.772,0.092c0.485,0.383,1.067,0.863,1.552,1.246
		l0.009,1.353c1.155-0.298,2.901,1.044,3.197,2.105l-19.83,20.143c-5.727-5.375-12.313-9.488-19.373-12.437
		c-7.157-2.949-14.884-4.54-22.891-4.777L257.166,130.975L257.166,130.975z M167.231,139.02l18.545,18.34
		c-7.375,7.783-13.391,16.813-17.955,26.607l0,0c-5.322,11.829-8.417,24.9-8.614,38.725l-25.944,0.174
		c0.169-17.982,4.104-35.312,11.618-51.119C150.395,159.82,157.941,148.749,167.231,139.02L167.231,139.02z M331.08,150.297
		c2.227,1.338,3.983,4.323,3.698,4.905c-0.285,0.679,1.932,0.47,1.932,0.47c0.27-2.902,3.073-1.954,3.176-0.988
		c0.199,0.965,0.696,3.089,0.696,3.089l0.781,1.445l1.165,1.152l1.735-0.205l0.489,0.963l2.124,0.276c0,0,1.749,1.922,1.945,2.404
		c0.196,0.482,2.606,0.273,3.186,0.462c0.676,0.189,1.644,0.666,1.746,1.438c0.198,0.772,1.172,2.119,1.172,2.119
		s1.932,0.47,2.13,1.146c0.197,0.675,0.979,2.12,0.979,2.12l1.649,1.342l0.203,1.449l1.737,0.182l0.495,1.93l2.892-0.213
		l1.632-1.171c0.48-0.293,0.961-0.586,1.344-0.879c0.588,1.349,1.175,2.699,1.667,4.049c5.492,13.594,8.58,28.267,8.874,43.345
		l-25.944,0.174c-0.128-4.639-0.544-9.18-1.345-13.621c0.188-0.678,0.281-1.259-0.01-1.45c-0.485-0.48,0.463-2.806,0.463-2.806
		s0.666-1.358-0.017-2.61c-0.684-1.349,0.174-2.805,0.652-3.388l-1.258-0.668l-1.255-0.185l-0.963,0.2
		c-0.296-1.061-0.592-2.026-0.985-3.087l0,0l0.773,0.188l-0.006-0.967l-1.159-0.282c-0.197-0.675-0.491-1.35-0.689-2.025
		l-0.216-3.382l-1.163-0.766l0.281-1.259l-1.257-0.475l0.661-2.131l-1.173-2.312l-1.64,0.011c-0.782-1.541-1.564-3.083-2.442-4.527
		c0.192-0.098,0.384-0.196,0.673-0.295c0.867-0.199,1.155-0.298,1.252-0.298l-0.205-1.739l-1.453-0.957l-0.495-1.93
		c0,0-1.734,0.302-1.631,1.268c0.001,0.193-0.094,0.387-0.286,0.485c-1.17-1.829-2.339-3.561-3.604-5.293
		c-0.001-0.097,0.095-0.194,0.095-0.291c0.667-1.164,0.277-1.839-0.786-2.121c-1.159-0.282-1.159-0.282-1.458-1.634
		c-0.298-1.255-1.651-1.632-1.651-1.632l-0.495-1.93l-1.152,0.781c-0.68-0.769-1.264-1.442-1.944-2.21l0.566-1.84
		c-0.676-0.092-0.968-0.477-1.163-0.862L331.08,150.297L331.08,150.297z M341.566,175.071L341.566,175.071
		C341.566,175.167,341.759,175.07,341.566,175.071z M228.101,154.853l-0.574,0.777l0.97,0.767l0.574-0.777L228.101,154.853z
		 M224.441,155.554l0.205,1.835l2.411-0.016c0.964-0.006-0.779-1.155-0.779-1.155S224.254,156.426,224.441,155.554L224.441,155.554z
		 M331.016,155.131l-0.964,0.103l0.203,1.449l0.964-0.103L331.016,155.131L331.016,155.131z M188.398,160.049l20.39,20.164
		c-4.214,4.475-7.748,9.622-10.508,15.151c-0.675,0.005-1.35,0.106-1.539,0.687c-0.474,1.26-2.598,0.984-2.598,0.984l-0.285,0.679
		l-1.638,0.301l-0.283,0.969l-1.927,0.303l4.821-0.226c1.253-0.202-0.463,2.807-1.236,2.618l-2.217,0.208l-0.766,0.778l-2.122,0.014
		l-0.955,1.36l-3.088-0.173c0,0-1.726,1.462-1.627,1.944c0.196,0.482-0.276,1.935-0.759,1.938c-0.482,0.003-1.437,1.46-1.144,1.941
		c0.293,0.481-0.95,2.133-0.95,2.133l-0.278,1.645l-0.963,0.296l0.03,4.447l-1.921,1.27l0.013,1.933l-0.862,0.972l-13.02,0.087
		c0.203-12.955,3.013-25.444,8.144-36.885C175.39,176.377,181.215,167.637,188.398,160.049L188.398,160.049z M322.075,159.444
		c0.68,0.672,0.585,0.866,1.553,1.536c0.291,0.191,0.581,0.383,0.871,0.381c0.486,0.577,1.069,1.153,1.555,1.73l-0.383,0.486
		c0.012,1.837,0.877,1.347,1.744,1.148c0.291,0.288,0.487,0.673,0.778,0.961c0.104,1.063,0.114,2.609,1.849,2.404
		c0,0,0,0,0.096-0.001c2.044,2.79,3.992,5.677,5.748,8.565l0.098,0.193l0,0c0.293,0.481,0.585,0.963,0.781,1.445
		c-0.384,0.293-0.574,0.681-0.574,0.681l-2.602,0.307l0.017,2.61l-1.251,0.492l0.204,1.642l1.735-0.205c0,0,0.013,1.933,0.49,1.157
		s4.534,0.163,4.161,2.099c-0.091,0.774,4.07,2.873,3.605,5.486c0.29,0.095,0.58,0.189,0.773,0.285
		c0.786,2.218,1.477,4.534,2.071,6.753l-0.285,0.582c0,0,0.291,0.191,0.582,0.479c0.496,2.027,0.992,4.053,1.295,6.081
		c-0.085,1.741-0.459,3.483-1.42,3.973c-1.921,1.173,0.196,0.482,0.196,0.482l-0.265,3.579c0.493,1.64,1.259,0.765,1.736-0.012
		c0.287-0.389,0.478-0.68,0.765-0.972c0.305,2.415,0.419,4.927,0.532,7.44l-19.386,0.13c0.096-0.097,0.286-0.485,0.286-0.485
		l0.756-2.325l2.695-0.791l0.275-2.129l-1.448-0.184c0,0,1.62-2.911,2.392-2.916c0.772-0.005,6.076-0.041,6.556-0.334
		c0.48-0.293,1.427-2.91,1.424-3.393s1.249-0.685,1.731-0.785c0.481-0.197,1.63-1.461,1.915-2.14
		c0.285-0.679-0.803-4.731-1.474-4.05c-0.671,0.681-2.115,0.981-2.115,0.981l-0.47,1.84l-0.767,0.682c0,0,0.196,0.482,0.011,1.643
		c-0.185,1.161-1.627,1.848-1.627,1.848l-0.67,0.778c0,0-3.857,0.219-4.34,0.029c-1.451-0.667-0.5-2.607,0.466-2.42
		c0.966,0.187-0.212-2.802-0.212-2.802l1.252-0.202c0,0,0.173-2.901,0.656-2.904c0.482-0.003-0.199-0.965-0.781-1.445
		c-0.678-0.479-1.461-2.117-2.135-1.919c-0.674,0.198-3.183,0.021-3.183,0.021l-0.476,0.97l-1.734,0.302
		c0,0,0.201,1.255-0.182,1.645c-0.957,1.166-4.605,3.608-3.09-0.463l0.476-0.97l-0.01-1.45l-2.895-0.174c0,0-1.45-0.474-1.454-1.15
		c-0.005-0.677-0.203-1.449-0.203-1.449l-3.401-3.747l-4.054-0.456l-0.294-0.771l-2.413-0.274c-0.387-0.191-0.677-0.285-1.064-0.38
		c-1.17-1.829-2.339-3.561-3.7-5.195c-0.001-0.097-0.098-0.289-0.099-0.386c-0.1-0.579-1.95-3.08-2.915-3.171
		c-0.388-0.384-0.68-0.769-1.069-1.153L322.075,159.444L322.075,159.444z M337.809,161.369c-0.193,0.001-0.384,0.196-0.383,0.486
		c0.005,0.677,0.778,0.961,0.495,1.833c-0.284,0.775,0.299,1.448,0.974,1.444c0.675-0.005,1.159,0.282,1.741,0.665
		c0.677,0.285,1.163,0.766,1.649,1.439l1.636-0.494c0,0,0.182-1.645-0.49-1.157s-1.165-1.152-1.742-0.955
		c-0.674,0.198-0.969-0.67-1.649-1.439c-0.68-0.769-0.489-0.963-1.263-1.442C338.388,161.462,338.098,161.27,337.809,161.369
		L337.809,161.369z M257.384,163.551c7.428,0.144,14.672,1.738,21.442,4.497c6.577,2.759,12.679,6.585,18.017,11.576l-1.054,1.07
		c-0.485-0.48-2.224-0.855-2.228-1.435c-0.005-0.677-1.649-1.439-1.45-0.474c0.199,0.965-1.148,1.458-1.439,1.17
		c-0.291-0.288-1.247,0.975-1.247,0.975c0.003,0.483-0.282,1.162,0.684,1.349c0.966,0.187,2.696-0.695,2.895,0.271
		c0.098,0.289,0.1,0.579,0.199,0.869l-6.323,6.422c-0.868,0.006-1.64-0.086-1.64-0.086c-0.473,1.453-2.702-0.175-2.13-1.146
		c0.669-0.971,0.664-1.648,0.664-1.648l-0.773-0.188l-0.952,1.843c-2.218,0.015-2.885,1.276-2.397,2.143
		c0.487,0.77-0.676-0.189-0.958,0.973c-0.282,1.162,0.201,1.159,1.168,1.636c0.968,0.477-0.479,0.487,0.201,1.255
		c0.389,0.481,1.353,0.378,1.643,0.472l-1.245,1.265c-1.058,0.394-2.411,0.113-2.411,0.113c0.002,0.29-0.189,0.581-0.478,0.68
		c-2.618-2.109-5.427-3.83-8.522-5.066c0.48-0.39,1.348-0.396,1.726-1.462c0.663-1.841,0.933-4.743,0.933-4.743
		s-2.605-0.176-2.696,0.695c-0.188,0.775-1.728,1.268-1.728,1.268s-1.251,0.492-0.764,1.165c0.487,0.673-0.958,0.973-0.958,0.973
		s0.1,0.483,0.102,0.869c-2.513-0.757-5.216-1.222-7.918-1.3L257.384,163.551L257.384,163.551z M342.679,168.49l-1.928,0.206
		c0.487,0.673,1.454,1.15,1.459,1.827c0.005,0.677-0.282,1.162,0.684,1.252c0.966,0.187,1.638-0.204,1.933,0.664
		c0.295,0.771,0.304,2.125,0.212,2.802c-0.188,0.678,0.204,1.642,0.975,1.637c0.772-0.005,0.966,0.187,0.969,0.67
		s0.952-1.843,0.952-1.843c-0.776-0.671-1.461-2.117-1.461-2.117s-0.787-2.315-0.789-2.605c-0.002-0.29-1.162-0.669-1.645-0.762
		C343.46,169.935,342.679,168.49,342.679,168.49L342.679,168.49z M327.445,169.269l-1.638,0.204l0.103,0.966l1.638-0.204
		L327.445,169.269L327.445,169.269z M328.417,170.422l0.005,0.773l0.964-0.006l-0.005-0.773L328.417,170.422z M327.174,171.977
		c0,0-0.956,1.263-2.889,0.696c0,0-0.269,3.095-1.229,3.778l-2.218,0.015c0,0,0.487,0.77,0.974,1.347
		c0.485,0.48,1.649,1.439,0.496,2.123s0.196,0.482,0.196,0.482s-0.17,3.385-1.62,2.911c-1.45-0.474-1.917,1.85-1.913,2.43
		c0.005,0.677,5.696,0.832,4.822-0.032c-0.485-0.48,0.664-1.648,0.664-1.648s3.86,0.264,4.631,0.259
		c0.772-0.005,1.445-0.203,0.958-0.973c-0.487-0.77-1.933-0.664-1.933-0.664s-1.926,0.496-3.668-0.459
		c-1.742-0.955,0.281-1.259,0.667-1.261c0.289-0.002,1.728-1.172,1.144-1.941c-0.68-0.769-0.016-2.32-0.011-1.643
		c0.005,0.677,1.742,0.955,2.125,0.469c0.286-0.485-0.013-1.933-0.788-2.411c-0.775-0.478,1.442-0.783,0.761-1.648
		C327.47,173.038,327.174,171.977,327.174,171.977L327.174,171.977z M330.39,176.886l0.008,1.16l0.964-0.006l-0.008-1.16
		L330.39,176.886z M332.515,177.451l-0.476,0.97l0.871,0.478l0.476-0.97L332.515,177.451L332.515,177.451z M348.149,178.7
		c-0.385,0.099,0.302,1.931-0.082,2.224c-0.48,0.293-0.765,0.972-1.244,1.458c-0.479,0.487,0.972,1.154,0.975,1.637
		c0.003,0.483,0.309,2.898,0.309,2.898s1.161,0.476,1.262,1.152c0.197,0.675,0.013,1.933,0.496,2.123s1.452,0.764,1.167,1.442
		s-0.276,1.935-0.276,1.935l0.685,1.445l1.259,0.765c0,0,0.456-3.87-0.316-4.058c-0.773-0.188-0.498-2.413-0.498-2.413
		s0.751-3.098-0.503-3.09c-1.254,0.008-0.3-1.641-1.172-2.119c-0.775-0.478-0.308-2.801-0.698-3.379
		c-0.294-0.675-0.299-1.448-1.17-1.926C348.245,178.7,348.148,178.604,348.149,178.7L348.149,178.7z M309.205,182.054l-1.638,0.204
		l0.103,0.966l1.638-0.204L309.205,182.054L309.205,182.054z M284.901,182.314c-0.482,0.003-0.964,0.103-0.964,0.103l-2.602,0.307
		l-0.185,1.161l1.737,0.182c0,0,0.776,0.671,0.779,1.155s1.164,0.959,1.742,0.955c0.675-0.005,2.403-1.273,2.403-1.273
		s0.756-2.325,0.179-2.128c-0.674,0.198-1.921,1.173-2.121,0.208C285.963,182.403,285.384,182.31,284.901,182.314L284.901,182.314z
		 M211.507,182.902l15.826,15.651l-1.544-0.086c-0.665,1.454-2.22-0.178-2.22-0.178c-0.296-0.965-2.604,0.017-2.604,0.017
		c0.012,1.837-3.091-0.753-3.091-0.753l-5.621-4.022c-3.202-2.879-8,0.827-8.187,1.698c0.105,1.256-0.956,1.263-2.018,1.077
		C204.619,191.455,207.772,186.987,211.507,182.902L211.507,182.902z M274.681,182.865l-0.963,0.2l0.299,1.448l0.963-0.2
		L274.681,182.865L274.681,182.865z M279.891,183.121l-3.567,0.217l0.007,0.967l3.567-0.217L279.891,183.121z M249.802,183.612
		l0.006,0.967l1.254-0.008l-0.006-0.967L249.802,183.612z M258.001,183.75l-0.09,0.967l1.159,0.186l0.09-0.967L258.001,183.75
		L258.001,183.75z M260.126,184.22l-0.09,0.967l1.159,0.186l0.09-0.967L260.126,184.22L260.126,184.22z M247.108,184.597
		l-0.09,0.967l1.159,0.186l0.09-0.967L247.108,184.597z M273.535,184.516l-0.481,0.197l0.296,0.965l0.481-0.197L273.535,184.516z
		 M312.405,184.643l-0.474,1.163l0.871,0.381l0.474-1.163L312.405,184.643z M300.447,184.916c0,0,0.966,0.187,1.739,0.375
		c0.778,0.961,1.556,1.923,2.238,2.885l-2.027-0.276l-1.255-0.185l-2.412-0.177c-2.4,1.659-2.869,3.596-2.869,3.596
		c-1.047,2.134-3.473-0.073-3.483-1.62l4.215-4.282c0.289-0.002,0.482-0.003,0.772-0.005
		C298.327,185.221,300.447,184.916,300.447,184.916L300.447,184.916z M262.257,185.462l0.006,0.967l1.254-0.008l-0.006-0.967
		C263.607,185.453,262.257,185.462,262.257,185.462z M246.055,185.764l-0.186,0.968l1.256,0.282l0.186-0.968
		C247.408,186.141,246.055,185.764,246.055,185.764z M245.678,187.12l-0.963,0.2l0.199,0.965l0.963-0.2L245.678,187.12z
		 M264.678,186.992l-0.964,0.006l0.008,1.16l0.964-0.006L264.678,186.992L264.678,186.992z M315.123,187.138
		c-0.579,0.004-1.35,0.106-1.735,0.205c-0.77,0.198-0.67,0.778,0.011,1.643l1.927-0.303c0,0,1.442-0.686,1.15-1.168
		C316.376,187.13,315.798,187.134,315.123,187.138L315.123,187.138z M304.424,188.176c0.585,0.866,1.169,1.732,1.753,2.502
		c-0.19,0.388-0.283,0.969-0.086,1.547c0.498,2.413,1.276,3.375-0.267,3.385c-1.64,0.011-1.937-1.244-1.937-1.244
		s-1.257-0.475-1.253,0.202c0.005,0.677-0.469,1.937,0.017,2.61c0.487,0.673-0.664,1.648-1.15,1.168
		c-0.485-0.48-1.749-1.922-1.463-2.407c0.286-0.485-2.242-3.562,0.262-4.062c2.601-0.501-0.206-1.932,0.756-2.325l1.249-0.685
		l1.254-0.008L304.424,188.176L304.424,188.176z M36.886,190.548c-2.568,5.431-3.492,11.527-4.802,17.433
		c-2.791,15.292,0.21,31.416,4.452,45.501c5.326,17.558,22.48,29.914,31.365,45.998l1.164,0.959
		c-1.312-8.691-2.051-18.16,0.401-26.49c3.672-13.365,8.311-26.35,10.63-40.189c1.857-10.743,3.994-22.841,2.671-33.175
		c-1.409,5.616-2.819,11.136-5.873,15.99c-11.549,18.154-23.366,39.501-15.014,62.452c-0.191,0.291-0.478,0.583-0.769,0.392
		c-3.33-7.615-4.159-16.213-6.336-24.318C48.94,233.485,32.231,215.519,36.886,190.548L36.886,190.548z M474.366,187.619
		c4.989,24.907-11.382,43.094-16.928,64.688c-2.067,8.134-2.781,16.839-6.009,24.401c-0.288,0.195-0.58-0.189-0.774-0.381
		c8.044-23.061-4.057-44.151-15.849-62.245c-3.118-4.716-4.602-10.313-6.086-15.91c-1.184,10.448,1.115,22.42,3.115,33.137
		c2.6,13.806,7.316,26.728,11.167,40.043c2.563,8.296,1.951,17.677,0.756,26.482l1.151-0.974
		c8.573-16.104,25.656-28.786,30.746-46.414c4.053-14.044,6.838-30.303,3.842-45.557
		C478.012,199.195,476.909,193.015,474.366,187.619L474.366,187.619z M255.365,193.338l0.315,3.865l-1.74-0.568l-1.157,0.008
		l-0.489-0.963l-0.966-0.187l0.024,3.577l0.97,0.767l0.777,0.768l1.641,0.182l0.302,1.931l4.052,0.166l0.487,0.77l2.412,0.177
		l4.661,4.706l-0.28,1.452l-0.768,0.488c0.297,1.158-2.119,0.498-2.119,0.498l0.007,0.967l1.159,0.186l1.162,0.669l1.621-2.814
		c1.728-1.172,2.607,0.466,2.71,1.432c0.199,0.965-0.766,0.778-0.766,0.778l0.016,2.32l0.966,0.284
		c1.653,1.922-0.654,3.098-0.654,3.098l-0.471,1.647c-0.473,1.453-2.211,1.175-2.211,1.175l-0.669,0.971l-1.926,0.496l3.765,0.458
		c0.377-1.356,1.339-1.652,1.826-0.979c0.487,0.673,0.495,1.833,0.495,1.833l0.966,0.187l-0.181,1.838l0.966,0.284l0.035,5.22
		l1.166,1.249c1.924-0.786,1.932,0.47,0.972,1.154s-0.265,3.579-0.265,3.579l-0.766,0.778l0.009,1.353l-0.96,0.683l0.012,1.837
		c-1.645-0.762-3.572-0.459-4.051,0.027c-1.453-0.957-4.538-0.646-4.532,0.224c0.973,1.25-1.146,1.651-1.146,1.651l-1.149,1.264
		c0.783,1.638-0.759,1.842-0.759,1.842l0.021,3.093l-1.917,1.85l0.116,2.899c-0.964,0.103-2.024,0.207-2.989,0.213
		c-7.523,0.05-14.581-2.609-20.208-7.502c0.096-0.097,0.192-0.098,0.287-0.292c0.763-1.262,2.112-1.464,2.112-1.464l0.474-1.163
		l4.341,0.164c0.277-1.839,2.403-1.176,2.409-0.306c0.005,0.773,1.641,0.182,1.641,0.182l1.145-1.844l1.736-0.012l0.18-1.935
		l0.768-0.488l-0.019-2.9c2.599-0.791,2.196-3.301,2.196-3.301l0.67-0.778l-0.297-1.158c-1.257-0.475-0.686-1.639,0.184-1.355
		c0.774,0.285-1.167-1.442-1.167-1.442c-0.959,0.78-1.743-0.955-1.743-0.955l-2.411,0.016l-0.016-2.32l-0.304-2.125l-2.419-1.144
		l-1.725,1.655l-0.274,2.322l0.01,1.45L242,228.325l-0.26,4.449l-1.251,0.492l0.204,1.642l-1.733,0.495l-1.733,0.495l-0.662,1.938
		l-1.249,0.782l-0.662,1.938l-0.741,4.645c-2.234-2.402-4.181-4.999-5.55-7.89c0.282-1.162,0.274-2.225,0.274-2.225
		c-1.451-0.667-0.695-2.895,0.958-0.973c1.653,1.922-0.991-3.957-0.991-3.957l-1.262-1.152l-1.641-0.182
		c-0.3-1.545-0.407-3.187-0.418-4.831c-0.005-0.677-0.009-1.353,0.083-2.031c0.479-0.487,0.963-0.2,0.963-0.2l0.97,0.767l1.454,1.15
		l0.199,0.965l-0.961,0.49l-0.184,1.355l0.495,1.833l1.254-0.008c0.465-2.613,3.84-2.636,4.816-0.999l0.949-2.326
		c-2.226-1.145-0.019-2.9,0.564-2.13c0.68,0.769,2.108-2.141,2.108-2.141s1.167,1.442-0.003-0.483
		c-1.17-1.926,0.752-2.905,0.752-2.905c-0.302-1.931,2.111-1.658,2.111-1.658l0.175-2.611l-2.22-0.178
		c-0.467,2.323-2.409,0.306-1.448-0.184c0.961-0.49,1.919-1.463,1.919-1.463l-0.01-1.45l0.963-0.296l0.182-1.645l2.411-0.016
		l2.115-0.981l0.477-0.777l2.217-0.208l3.163-2.921l-0.298-1.255c-1.929,0.013-0.01-1.45-0.01-1.45l0.273-2.419l-1.736,0.012
		l-0.313-3.478C250.834,193.659,253.05,193.354,255.365,193.338L255.365,193.338z M353.032,202.158l-0.184,1.258l0.965,0.09
		l0.184-1.355L353.032,202.158L353.032,202.158z M352.482,206.512l-0.476,0.97l0.871,0.478l0.476-0.97L352.482,206.512z
		 M186.156,214.102c1.542-0.107,2.609,0.756,2.609,0.756l2.217-0.208c0.581,0.383,0.97,0.767,1.166,1.249
		c-0.183,1.548-0.366,2.999-0.355,4.546c-0.19,0.388-0.381,0.679-0.381,0.679c-0.191,0.291-0.284,0.775-0.377,1.259l-6.076,0.041
		l-0.001-0.097l-1.737-0.182c-1.937-1.147-1.001-5.407-1.001-5.407C183.557,214.893,184.999,214.207,186.156,214.102
		L186.156,214.102z M241.826,216.823l-0.284,0.775l-0.772,0.005l-0.184,1.355l0.964-0.006l0.199,0.965l-0.671,0.681l-0.284,0.775
		l-1.252,0.298l-2.875,2.823l-0.184,1.258l-0.764,1.165l-0.948,2.423l-3.374,0.216l-0.656,2.904l0.498,2.413l2.901,1.141
		l0.278-1.645l0.961-0.49l0.182-1.645l0.667-1.164l0.957-1.166l0.28-1.355l1.633-0.978l1.927-0.303l0.765-0.972l0.276-1.935
		l0.087-1.451l0.669-0.971l1.924-0.786l-0.021-3.093l-0.964,0.006l-0.201-1.159L241.826,216.823L241.826,216.823z M342.426,217.116
		l-0.186,0.968l1.738,0.278l0.186-0.968L342.426,217.116z M338.481,218.496l-0.48,0.293l-1.153,0.684l-1.065-0.67l-0.477,0.777
		l1.259,0.765l0.291,0.191l0.192-0.098l0.961-0.586l0.098,0.289l0.865-0.392l-0.295-0.771L338.481,218.496L338.481,218.496z
		 M352.511,225.265l25.944-0.174c-0.17,17.885-4.107,34.828-11.142,50.149l0,0c-5.703,12.508-13.44,23.871-22.826,33.697
		l-0.68-0.672c-0.109-1.836-0.221-4.155-0.221-4.155l-0.777-0.768l-0.22-4.059c0.661-2.131-3.121-5.199-3.406-4.521
		c-0.285,0.679-2.41,0.209-2.406,0.789c0.005,0.677-1.228,3.875-0.641,5.031c0.001,0.097,0.001,0.097,0.098,0.193l-10.195-10.082
		c7.854-8.269,13.964-17.591,18.429-27.771C349.501,251.096,352.31,238.414,352.511,225.265L352.511,225.265z M382.313,225.066
		l28.645-0.192c-0.132,23.491-5.481,45.761-14.992,65.739l0,0c-7.228,15.225-16.877,29.114-28.371,41.081l-20.39-20.164
		c9.865-10.313,17.696-21.966,23.495-34.571l0,0C378.116,260.862,382.146,243.241,382.313,225.066L382.313,225.066z
		 M326.182,225.442l22.472-0.15c-0.205,12.665-2.921,24.767-7.67,35.722c-4.274,9.889-10.29,18.919-17.568,26.702
		c-0.311-3.285-1.107-6.856-1.107-6.856l-1.258-0.668l0.263-3.965l-1.736,0.012l-2.868,3.789l-0.282,1.065l-1.651-1.632l0.862-0.876
		l-0.206-1.932l1.151-0.974l-0.011-1.643l0.963-0.296l0.169-3.578l0.77-0.198l-0.052-7.83l-2.427-2.304
		c-0.188,0.775-2.695,0.791-2.695,0.791s-0.667,1.164-1.15,1.168c-0.482,0.003,0.685,1.445,0.305,2.415
		c-0.283,0.969-1.633,0.978-1.633,0.978l-2.407,0.693l-0.67,0.778l-2.508,0.017l-0.203-1.449c0.287-0.292,0.478-0.68,0.765-0.972
		l2.021-0.594l1.634-0.784l0.761-1.648c0.182-1.645,2.112-1.464,2.112-1.464s3.644-3.118,3.827-4.569s1.41-5.52,3.628-5.534
		l4.147-0.028c1.635-0.688,1.139-2.811,1.139-2.811l2.12-0.304l0.297,1.158c0,0,2.895,0.271,3.181-0.215
		c0.286-0.485,0.953-1.65,1.728-1.172c0.775,0.478,3.368-1.183,3.368-1.183c0.185-1.161,4.143-0.704,4.143-0.704l0.473-1.453
		c0,0-2.726-3.752-3.208-3.749c-0.482,0.003-3.102-2.299-3.385-1.427c-2.609-0.659-2.44-4.237-2.44-4.237l-0.98-2.313
		c-0.009-1.353-2.438-4.044-2.919-3.751C326.384,226.89,326.09,226.119,326.182,225.442L326.182,225.442z M163.091,226.534
		l11.284-0.076l0.102,0.869l-2.394,2.626l0.307,2.608l-1.443,0.493l-0.282,1.162l-0.652,3.388l1.641,0.182
		c0.77-0.295,0.689,2.122,0.016,2.417c-0.673,0.295-2.405,0.983-1.436,1.653c0.969,0.67-2.601,0.501-2.607-0.466
		s-1.941-1.824-2.421-1.434c-0.288,0.195-0.677-0.285-0.97-0.767C163.63,235.037,163.216,230.786,163.091,226.534L163.091,226.534z
		 M179.68,226.422l0.772-0.005c0.386,0.094,0.774,0.285,0.774,0.285l2.22,0.178l0.19-0.388l7.619-0.051l0.703,4.152l-2.11,1.851
		c-1.73,0.978-1.714,3.298,0.218,3.769c1.255,0.185,0.794,3.281-1.15,1.168c-2.893,0.019,1.657,2.599,0.302,1.931
		c2.903,1.431,2.21-1.271,2.21-1.271l1.439-1.17c0.6,3.186,1.489,6.37,2.57,9.36l0,0c3.045,8.293,7.725,15.802,13.845,22.335
		L189.165,289c-1.359-1.344-2.623-2.786-3.79-4.228c0.283-0.969,0.854-2.036,0.854-2.036c2.113-1.368-0.505-3.38-0.505-3.38
		c0.276-1.935-1.186-4.245-1.186-4.245c-2.906-1.914-2.16-5.689-2.16-5.689l-0.017-2.61c-2.427-2.304,0.947-2.616,0.947-2.616
		c1.144-1.941-0.794-3.378-0.794-3.378l-0.207-2.125l-2.606-0.273l-0.34-7.635l-5.842-8.274c-1.159-0.282-0.305-2.318-0.305-2.318
		c1.442-0.783-0.308-2.801-0.308-2.801l-0.217-3.575l3.374-0.313l0.763-1.262l1.64-0.011l-0.221-4.252
		C178.718,226.816,179.198,226.522,179.68,226.422L179.68,226.422z M219.705,226.154l1.832-0.012
		c0.104,1.159,0.208,2.319,0.408,3.381l-0.963,0.296l-0.294-0.675l-0.47,1.84l-2.893,0.019l-0.206-1.932l1.733-0.495l0.669-0.971
		L219.705,226.154L219.705,226.154z M267.268,228.059c-0.289,0.002-0.577,0.197-0.766,0.778l0.014,2.127
		c0,0,2.242,3.562,3.113,4.039c0.775,0.478,2.118-0.594,1.246-1.168c-2.422-1.627-2.243-3.755-2.928-5.201
		C267.752,228.346,267.557,228.058,267.268,228.059L267.268,228.059z M183.466,230.071l0.201,1.159l0.772-0.005
		c1.269,2.312,0.245,7.829,0.245,7.829s-1.928,0.206-2.223-0.758s-1.143,2.134-0.465,2.613c0.678,0.479,2.893-0.019,3.099,1.816
		c0.205,1.835,1.439-1.17,1.439-1.17l-0.074-11.116L183.466,230.071L183.466,230.071z M260.548,232.841l-2.879,2.146
		c1.448,0.184,1.651,1.632,1.752,2.308c0.395,1.447,0.274-2.322,0.95-2.133C261.047,235.255,260.548,232.841,260.548,232.841
		L260.548,232.841z M196.42,234.527c1.353,0.474,2.912,2.687,2.914,3.074c0.003,0.483,6.367,0.151,6.367,0.151
		c1.744,1.148,2.438,4.044,2.438,4.044c1.721-2.332,5.496-0.23,2.708,1.142c2.615,1.626,2.625,3.076,2.625,3.076
		c2.117-0.691,2.128,0.952,2.132,1.436s0.659-2.421,0.659-2.421c-2.423-1.82,3.167-2.438,1.645,0.762l-0.955,1.456l1.648,1.246
		l0.218,3.769c3.567-0.314,2.572-4.754,2.572-4.754l1.638-0.301c-0.01-1.45,1.153-0.684,1.153-0.684
		c-0.797-3.861,0.735-5.515,1.695-6.101c1.27,2.408,2.828,4.621,4.674,6.639l-18.298,18.586
		c-5.731-6.052-10.021-12.983-12.869-20.601C198.011,241.67,197.12,238.196,196.42,234.527L196.42,234.527z M341.694,237.421
		c-1.351-0.088-2.984,0.89-2.497,1.563c0.973,1.25,2.609,0.659,3.188,0.752c0.676,0.189,1.257,0.475,0.665-1.454
		C342.853,237.704,342.273,237.418,341.694,237.421L341.694,237.421z M189.227,240.666c-0.386,0.003-0.673,0.295-0.671,0.681l0,0
		c0.003,0.387,0.294,0.675,0.68,0.672c0.386-0.003,0.673-0.295,0.671-0.681C190.001,241.047,189.613,240.663,189.227,240.666
		L189.227,240.666z M187.506,242.9l-2.4,1.659l-1.646-0.956l0.026,3.867l2.627,3.366l0.949-2.326l0.28-1.452l-1.161-0.476
		l0.177-2.418l0.963-0.2L187.506,242.9L187.506,242.9z M246.848,246.563l-1.445,0.203l0.208,2.319l0.97,0.767l1.739,0.472
		c0,0,2.407-0.693,2.587-2.627l-3.666-0.169L246.848,246.563L246.848,246.563z M267.11,247.684c1.35-0.009,1.083,3.279,0.994,4.343
		c-0.962,0.393-1.924,0.786-2.886,1.083l-0.024-3.577l1.627-1.848C266.917,247.686,267.013,247.685,267.11,247.684L267.11,247.684z
		 M233.174,249.845c5.628,4.989,12.592,7.939,20.022,8.47l0.001,0.097c0,0-0.569,1.454,0.108,1.739
		c0.676,0.189,0.485,0.383,0.873,0.768l-0.38,0.873c-0.584-0.769-0.961,0.586-0.572,0.971s-0.867,0.102-0.864,0.586
		c0.003,0.483-0.381,0.776,0.006,0.967c0.388,0.287-0.094,0.387-0.574,0.777c-0.48,0.39,2.029,0.47,2.029,0.47
		s-0.489-0.963,0.09-0.967c0.096-0.001,0.193-0.001,0.289-0.002l0.011,1.643c-0.194-0.095-0.386-0.094-0.676-0.189l0.008,1.16
		l-1.253,0.202l1.166,1.249l0.869,0.091l0.018,2.707l0.001,0.193c0.014,2.127-5.3,0.712-5.785,0.232l-0.173,2.901l-0.963,0.2
		l0.206,1.932l-0.174,2.805l1.734-0.302l0.008,1.16l4.341,0.164l0.862-0.876l0.02,2.997l0.001,0.193l-2.891,0.309l-1.249,0.685
		l-0.489-0.963l-1.254,0.008l-0.764,1.068c-3.765-0.555-7.533-1.4-11.109-2.632l0,0c-7.927-2.654-15.286-7.051-21.595-12.906
		L233.174,249.845L233.174,249.845z M80.317,252.415c2.217,14.195-3.293,26.799-4.456,40.341
		c-0.986,11.124,1.015,21.937,5.417,31.188c1.273,2.795,3.603,5.196,4.298,8.091c-4.172-3.742-7.194-8.459-10.022-13.08
		c-13.552-21.66-41.712-35.585-43.818-62.058c-0.886,11.8,0.259,24.262,4.187,34.676c5.498,14.464,16.086,25.606,28.205,34.999
		c12.508,9.777,27.411,17.314,38.85,25.937c-2.256-5.688-5.956-10.884-7.443-16.771C88.506,308.621,92.057,277.277,80.317,252.415
		L80.317,252.415z M431.767,250.062c-11.407,25.017-7.436,56.311-13.91,83.325c-1.407,6.003-5.037,11.247-7.217,16.869
		c11.322-8.776,26.124-16.512,38.5-26.455c11.992-9.554,22.333-20.837,27.734-35.373c3.884-10.466,4.765-22.942,3.722-34.729
		c-1.752,26.499-29.723,40.8-42.983,62.639c-2.862,4.659-5.723,9.512-9.846,13.213c0.656-2.808,2.954-5.337,4.189-8.148
		c4.277-9.406,6.134-20.148,4.999-31.258C435.418,276.815,429.644,264.287,431.767,250.062L431.767,250.062z M292.02,251.578
		c0.386-0.003,0.676,0.189,0.584,0.769c-0.473,1.453,0.014,2.127,0.014,2.127c2.109-1.947,3.859,0.167,3.669,0.652
		s1.164,0.959,1.932,0.47c0.768-0.488,1.746,1.438,1.463,2.407c-0.283,0.969-3.178,0.795-3.377-0.171s-0.68-0.672-0.966-0.187
		c-0.287,0.389-1.346,0.686-2.119,0.498l-0.68-0.672c0.095-0.194,0.19-0.388-0.004-0.58c-0.194-0.192-0.484-0.19-0.869-0.188
		l-1.456-1.44c-0.006-0.967,0.274-2.322,0.175-2.708C290.287,252.073,291.345,251.582,292.02,251.578L292.02,251.578z
		 M187.766,252.856l-1.156,0.201l-0.184,1.355l1.255,0.185L187.766,252.856L187.766,252.856z M388.191,252.964
		c-0.675,0.005-1.444,0.396-1.924,0.69l0.584,0.769c0.576-0.391,1.443-0.59,1.54-0.494c0,0,0,0-0.001-0.097l0.963-0.2
		c-0.098-0.289-0.197-0.579-0.487-0.673C388.576,252.961,388.383,252.963,388.191,252.964L388.191,252.964z M188.269,255.946
		c-0.386,0.003-0.673,0.295-0.671,0.681c0.003,0.387,0.294,0.675,0.68,0.672c0.386-0.003,0.673-0.295,0.671-0.681
		C188.946,256.231,188.558,255.944,188.269,255.946z M268.131,256.184c0.003,0.387,0.199,0.869,0.199,0.869l0.773,0.285l-1.439,1.17
		l-1.244,1.458l-1.643-0.472l-1.93-0.18l-0.683-1.155l-1.159-0.186l-0.177,2.321l-0.765,0.972l-1.916,1.946
		c2.025-0.014,0.682,1.059-0.279,1.549l-0.044-6.573c2.025-0.11,4.145-0.414,6.07-0.911c0.194,0.192,0.291,0.288,0.291,0.288
		l1.447-0.01l0.091-0.774C266.688,256.677,267.458,256.479,268.131,256.184L268.131,256.184z M189.352,259.322
		c-0.386,0.003-0.673,0.295-0.671,0.681l0,0c0.003,0.387,0.294,0.675,0.68,0.672c0.386-0.003,0.673-0.295,0.671-0.681
		S189.738,259.319,189.352,259.322L189.352,259.322z M249.924,259.4c-0.772,0.005-1.43,2.523-1.812,3.106
		c0,0,0.395,1.351,1.069,1.25c0.674-0.101,1.154-0.491,1.829-0.592c0.578-0.101,0.861-1.069,1.047-2.134
		c0.186-0.968-0.203-1.449-0.203-1.449s-0.572,0.971-1.543,0.01C250.214,259.494,250.117,259.398,249.924,259.4L249.924,259.4z
		 M186.375,261.178l-1.349,0.202l0.008,1.16l1.349-0.202L186.375,261.178L186.375,261.178z M282.917,260.532l1.157-0.008
		l0.198,0.772l4.922,0.45l0.193-0.001c1.937,1.147,0.982,2.603,0.309,2.898c-0.673,0.295-1.734,0.302-1.734,0.302l-0.285,0.679
		l-4.145,0.318l-0.278,1.645c-2.124-0.276-2.88,1.953-2.39,3.109s0.014,2.127,0.014,2.127l1.741,0.762l2.214-0.691
		c0.278-1.645,1.723-1.945,3.067-2.921c1.247-0.975,3.388,1.814,2.721,3.075c-0.095,0.194-0.095,0.291-0.19,0.388
		c-2.4,1.659-4.994,3.224-7.685,4.595l0,0c-4.23,2.058-8.656,3.731-13.375,4.73c-0.097-0.096-0.194-0.095-0.194-0.095l-1.739-0.472
		l-0.209-2.415c-0.3-1.641-3.387-1.621-3.186-0.462c0.201,1.159-5.687,0.521-5.784,0.522l-0.03-4.447l1.628-1.751l3.66-0.798
		c0.278-1.645,1.931,0.277,1.931,0.277c1.638-0.204,1.935,0.954,1.935,0.954l2.124,0.276c1.739,0.472,0.68,0.672,0.781,1.348
		c0.199,0.965,0.969,0.67,0.969,0.67l0.275-2.129l0.966,0.187l-0.972-1.154l-1.741-0.762l-1.934-0.76
		c-1.266-1.828,0.28-1.452,1.631-1.268l2.122-0.014c0,0,2.433,3.27,2.438,4.044s1.164,0.959,1.164,0.959l1.445-0.203l0.49,1.157
		l1.447-0.01l0.489,0.963l2.893-0.019l0.183-1.451l-2.704-0.465l-0.204-1.642l-1.932-0.47c-0.694-2.799,0.458-3.58,1.238-2.328
		l0.966,0.187l-0.306-2.415l1.155-0.298l-0.312-3.381l-0.966-0.284l-0.008-1.16l4.052,0.166
		C282.442,261.502,282.917,260.532,282.917,260.532L282.917,260.532z M398.992,267.199l-0.865,0.489
		c0.098,0.193,0.1,0.483,0.197,0.675c0.002,0.29,0.1,0.579,0.294,0.771c0.194,0.095,0.387,0.191,0.676,0.092l-0.199-0.965
		c0.096-0.001,0.194,0.095,0.194,0.192c0,0-0.001-0.097-0.001-0.193C399.19,267.971,399.187,267.584,398.992,267.199
		L398.992,267.199z M398.04,269.042l-0.963,0.2c0.296,0.965,0.592,1.929,0.592,2.026l0.865-0.392
		C398.631,270.874,398.238,269.91,398.04,269.042L398.04,269.042z M322.818,270.512l0.021,3.093l1.157-0.008l-0.021-3.093
		L322.818,270.512z M288.199,271.517l-1.249,0.782l0.488,0.867l1.249-0.782L288.199,271.517z M392.665,273.041
		c-0.091,0.774,0.108,1.739,0.88,1.831l0.186-0.968l0,0c-0.097-0.096-0.196-0.482-0.102-0.869L392.665,273.041L392.665,273.041z
		 M264.211,275.641l0.013,1.933L264.211,275.641z M392.195,274.881c-0.289,0.002-0.673,0.295-1.057,0.587
		c-0.961,0.586-0.558,3.097,0.016,2.417c0.575-0.584,1.35-0.009,1.434-1.846C392.679,275.071,392.485,274.879,392.195,274.881
		L392.195,274.881z M292.478,276.805l3.774,1.908c0.487,0.673,2.607,0.466,2.607,0.466l0.68,0.769c0,0,1.252-0.202,2.127,0.759
		c0.778,0.961,5.017,0.16,5.017,0.16l1.164,0.959l1.741,0.665l2.99,0.077l1.845,1.824c-2.884,1.373-8.771,0.929-9.159,0.545
		c-0.485-0.48-3.871-1.907-3.871-1.907s-2.618-2.109-3.096-1.429s-2.706-0.755-2.702-0.272c0.003,0.483-2.13-1.146-2.13-1.146
		l-3.19-1.139l2.408-0.499L292.287,277C292.286,276.903,292.383,276.902,292.478,276.805L292.478,276.805z M269.335,277.443
		l-1.152,0.878l0.485,0.48l0.487,0.77l1.145-1.844L269.335,277.443L269.335,277.443z M118.457,287.54l0.011,1.643l1.254-0.008
		l0.014,2.127l0.964-0.006l-0.209-2.415l-1.257-0.475l-0.005-0.773L118.457,287.54L118.457,287.54z M352.634,286.843l-0.087,1.451
		l1.544,0.086l0.087-1.354L352.634,286.843L352.634,286.843z M351.307,290.235l-0.283,0.969c0.096-0.001,0.194,0.095,0.291,0.191
		l0.199,0.869c-0.096,0.097-0.192,0.195-0.191,0.291l0.68,0.672c0.478-0.583,0.667-1.164,0.568-1.647
		C352.37,290.615,351.5,290.33,351.307,290.235L351.307,290.235z M351.024,291.204L351.024,291.204L351.024,291.204L351.024,291.204
		z M323.357,293.322l7.088,7.009c-0.282,1.162-1.434,1.846-2.016,1.464c-0.678-0.479,0.777,0.768,1.167,1.442
		c0.294,0.675,1.258,0.668,1.64-0.011c0.19-0.485,0.184-1.258,0.276-1.935l3.301,3.265c-0.38,0.873-0.857,1.649-0.66,2.228l0,0
		l1.451,0.667l0.212,2.802c1.068,1.056,3.479,1.04,5.406,0.737l0.68,0.672c-5.844,5.839-12.368,11.006-19.283,15.499l-0.01-1.547
		c2.879-2.146,3.047-5.917,0.248-6.188c-2.027-0.276-1.174-2.409,0.753-2.808l1.154-0.491l-0.01-1.547l3.642-3.408l-0.017-2.61
		l-8.05-6.616c-1.643-0.569-1.754-2.598-1.188-4.535C320.481,296.048,321.92,294.782,323.357,293.322L323.357,293.322z
		 M126.513,295.027l1.177,2.892l0.685,1.445l1.266,1.828l1.747,1.632l0.667-1.164l-1.174-2.409l-1.163-0.766l-0.787-2.315
		L126.513,295.027L126.513,295.027z M95.183,297.556c9.872,19.461,5.796,44.622,18.554,62.904
		c3.993,5.773,9.527,11.246,14.67,15.755l-0.192,0.195c-4.644-2.096-8.813-5.354-13.08-8.806
		c-22.21-18.315-55.499-20.412-68.914-50.387c3.716,22.016,21.304,41.425,40.29,53.672c18.018,11.673,40.963,10.166,60.875,16.606
		c-18.521-14.763-21.467-37.074-29.796-56.545C112.399,319.095,104.032,308.227,95.183,297.556L95.183,297.556z M417.603,295.398
		c-8.802,10.693-17.023,21.671-22.053,33.885c-8.067,19.581-10.715,41.929-29.036,56.939c19.824-6.706,42.883-5.604,60.647-17.42
		c18.724-12.499,36.05-32.142,39.568-54.206c-13.012,30.151-46.27,32.694-68.233,51.305c-4.22,3.508-8.346,6.823-12.961,8.98
		l-0.194-0.192c5.081-4.674,10.541-10.221,14.457-15.95C412.308,340.095,407.992,314.989,417.603,295.398L417.603,295.398z
		 M166.118,304.138c1.447-0.01,3.29,1.621,3.584,2.296c0.099,0.386,0.585,0.866,1.069,1.25l-2.395,2.433
		c-1.457-1.537-2.914-3.074-4.372-4.707l0.675-0.005C164.964,304.533,165.54,304.142,166.118,304.138L166.118,304.138z
		 M261.179,312.589c0.965,0.09,2.027,0.276,2.706,0.755c1.744,1.245,4.15,0.456,4.15,0.456l1.75,2.115
		c-3.758,0.605-7.517,0.92-11.374,1.043l-0.026-3.867C258.961,312.7,260.021,312.5,261.179,312.589z M344.524,314.351l20.39,20.164
		c-11.21,11.095-24.072,20.462-38.298,27.807c-20.377,10.48-43.387,16.724-67.786,17.178l-0.192-28.709
		c11.669-0.271,23.134-2.088,34.011-5.448l2.803,0.851l0.789,2.605l1.253-0.202l0.959-0.78l3.857-0.219l1.917-1.85l2.12-0.304
		l15.056-12.958C329.661,327.307,337.433,321.262,344.524,314.351L344.524,314.351z M271.739,319.575l0.295,0.771l2.706,0.755
		l1.932,0.47l0.694,2.799l1.448,0.184l0.495,1.833c1.744,1.245-0.455,4.063-0.455,4.063l0.024,3.577l1.258,0.668l-0.184,1.355
		l2.136,2.112l2.412,0.177l3.983,4.227c-9.531,2.674-19.551,4.191-29.966,4.454l-0.175-26.196
		C262.969,320.697,267.403,320.281,271.739,319.575L271.739,319.575z M232.985,322.445l-0.959,0.78l-0.48,0.39l0.485,0.383
		l1.163,0.766l0.574-0.777l-0.582-0.479l0.48-0.39L232.985,322.445L232.985,322.445z M244.444,334.065l-0.38,0.873l0.968,0.477
		l-0.287,0.292l0.68,0.672l0.766-0.778l0.479-0.487l-0.581-0.286L244.444,334.065L244.444,334.065z M163.387,342.824l1.267,1.925
		l0.203,1.449l1.643,0.472l0.682,0.962l1.153-0.684l-0.786-2.121l-2.134-1.822L163.387,342.824L163.387,342.824z M127.232,344.903
		c12.164,16.159,15.698,39.723,37.743,47.792c3.868,1.424,8.402,1.684,11.696,3.788c-4.239,0.705-7.913-0.624-11.873-1.467
		c-28.298-5.707-62.871,2.258-84.251-21.767c8.111,15.799,24.783,28.158,40.828,33.271c24.745,7.955,50.435-1.304,73.544-7.163
		c3.37-0.893,7.422-0.63,10.501-1.81c-12.941-2.523-25.409-6.403-35.501-15.519C155.461,368.978,142.732,355.046,127.232,344.903
		L127.232,344.903z M386.094,343.17c-15.266,10.349-27.903,24.451-42.186,37.693c-9.969,9.25-22.385,13.2-35.29,15.993
		c3.094,1.139,7.143,0.822,10.524,1.67c23.282,5.644,48.998,14.559,73.633,6.177c15.878-5.423,32.383-18.004,40.379-33.814
		c-21.056,24.308-55.732,16.807-83.951,22.989c-3.948,0.896-7.605,2.178-11.853,1.626c3.361-2.149,7.796-2.469,11.644-3.945
		C370.929,383.099,374.147,359.49,386.094,343.17L386.094,343.17z M233.675,396.778c-21.7,0.145-41.112,10.812-60.059,18.866
		c-17.216,7.269-40.083,6.068-55.489-4.462c7.586,9.423,17.753,15.252,28.292,19.144c19.437,7.603,42.063,1.555,58.58-9.189
		c11.812-7.716,21.963-18.611,36.14-18.706c2.508-0.017,5.017,0.256,7.528,0.723c-19.814,8.156-37.852,22.294-51.843,35.921
		c2.624,2.979,6.018,5.76,9.218,8.252c15.611-16.442,33.336-34.154,51.129-41.62c17.891,7.13,35.852,24.701,51.682,40.932
		c3.165-2.631,6.523-5.36,9.107-8.375c-14.172-13.439-32.397-27.334-52.319-35.224c2.504-0.5,5.01-0.807,7.518-0.824
		c14.178-0.095,24.473,10.663,36.387,18.22c16.563,10.426,39.268,16.268,58.698,8.404c10.39-4.033,20.477-9.997,28.033-19.521
		c-15.168,10.638-38.112,12.242-55.424,5.204c-19.149-7.799-38.606-18.205-60.306-18.06c-7.909,0.053-15.712,1.459-23.315,3.829
		C249.404,397.93,241.584,396.725,233.675,396.778L233.675,396.778z"/>
</g>
</svg>
