<?xml version="1.0" encoding="iso-8859-1"?>
<!-- Generator: Adobe Illustrator 23.0.1, SVG Export Plug-In . SVG Version: 6.00 Build 0)  -->
<svg version="1.1" id="Layer_1" xmlns="http://www.w3.org/2000/svg" xmlns:xlink="http://www.w3.org/1999/xlink" x="0px" y="0px"
	 viewBox="0 0 512 512" style="enable-background:new 0 0 512 512;" xml:space="preserve">
<g>
	<path style="fill:#0041B6;" d="M341.871,222.96c-9.817,0-18.735,3.768-46.214,23.486v106.112
		c47.638-53.527,61.202-90.149,61.202-108.938C356.809,230.47,350.739,222.96,341.871,222.96z M345.618,152.529
		c0-18.839-21.483-34.286-49.961-36.158v98.137c35.934-21.124,49.948-42.312,49.948-61.979H345.618z M430.177,110.882
		c-0.462-1.871-0.937-2.575-1.874-2.813l-33.674-8.93l-4.671-19.253c-0.237-0.942-0.475-1.645-1.399-1.871l-34.573-9.394
		l-4.197-18.324c-0.057-1.107-0.811-2.053-1.874-2.349l-89.755-16.741c-1.469-0.276-2.977-0.276-4.447,0l-89.792,16.741
		c-1.062,0.296-1.817,1.242-1.874,2.349l-4.209,18.324l-34.56,9.382c-0.937,0.226-1.162,0.929-1.399,1.871l-4.671,19.253
		l-33.586,8.942c-0.924,0.239-1.399,0.942-1.861,2.813c-2.836,15.02-4.245,30.277-4.209,45.565
		c0,135.262,70.07,252.69,174.701,322.669c0.885,1.186,2.273,1.884,3.747,1.884s2.862-0.698,3.747-1.884
		c104.631-69.979,174.701-187.407,174.701-322.669c0.005-15.29-1.429-30.546-4.284-45.565H430.177z M242.823,416.898
		c0,0.942-0.937,1.407-1.861,0.465c-25.692-29.577-42.966-65.734-54.645-105.183l-17.749,11.303
		c-4.671,3.29-8.406,1.884-11.241-3.278c-23.819-42.261-39.232-111.776-40.631-160.594c-0.068-2.267,0.774-4.467,2.336-6.104
		c6.359-7.656,13.224-14.873,20.546-21.602c1.399-1.407,2.81-0.477,2.81,1.871c0,60.108,10.267,115.984,26.617,152.619
		c1.399,2.813,2.798,2.813,4.671,1.407l5.133-3.29c-9.805-43.668-15.413-101.892-14.014-169.046c0-2.349,0.475-3.29,1.874-4.22
		c7.158-4.488,14.649-8.414,22.407-11.743c2.336-0.942,2.81-0.465,2.81,1.407c-1.324,97.66,6.645,165.253,23.894,219.257
		c0.462,1.407,1.861,0.929,1.861-0.477c-0.937-19.718-0.937-37.087-0.937-58.224l-0.924-168.581c0-1.871,0.462-2.813,2.336-3.278
		c7.684-1.907,15.481-3.321,23.344-4.232c0.384-0.05,0.77,0.082,1.043,0.357c0.274,0.275,0.405,0.663,0.356,1.049L242.823,416.898z
		 M270.851,417.363c-0.937,0.942-1.874,0.477-1.874-0.465V86.794c-0.05-0.386,0.082-0.774,0.355-1.049
		c0.274-0.275,0.659-0.407,1.043-0.357c62.576,4.232,102.745,30.531,102.745,68.56c-0.008,15.777-5.834,30.992-16.35,42.701
		c20.546,5.639,28.49,21.137,28.49,41.797c0.037,36.635-26.579,97.22-114.373,178.917H270.851z"/>
</g>
</svg>
